<svg width="167" height="96" viewBox="0 0 167 96" fill="none" xmlns="http://www.w3.org/2000/svg">
<path fill-rule="evenodd" clip-rule="evenodd" d="M89.912 60.8063C89.0867 61.6791 99.1704 44.9319 89.8497 37.1823C80.529 29.4327 67.2211 27.6451 65.6914 13.333C64.1616 -0.979084 40.7382 -4.5731 24.5772 6.50135C8.41613 17.5758 -10.5046 40.5831 9.57188 46.1052C29.6483 51.6274 33.4597 71.5043 34.285 75.2364C35.1253 78.9678 77.95 77.0271 79.3452 76.079C80.7291 75.1159 90.7374 59.9335 89.912 60.8063Z" fill="#F6A1FE" fill-opacity="0.15"/>
<path fill-rule="evenodd" clip-rule="evenodd" d="M24.0698 86.8674C24.0698 86.8674 25.0753 80.8188 24.8053 77.6583C24.5354 74.5136 19.3134 62.3405 17.5119 58.8644C15.7103 55.3883 21.3531 56.1256 24.2038 59.3607C27.0713 62.5808 33.0115 58.7138 34.5874 55.9449C36.1458 53.176 38.2653 67.5464 38.999 70.0135C39.719 72.4813 39.9441 82.8185 39.9441 82.8185C39.9441 82.8185 27.176 84.49 24.0698 86.8674Z" fill="#E1DBFC"/>
<path fill-rule="evenodd" clip-rule="evenodd" d="M161.952 17.0344C161.952 17.0344 162.537 15.5912 163.467 13.7716C164.397 11.9521 165.823 10.6269 166.468 10.7172C167.113 10.8076 165.928 14.6595 165.928 14.6595C165.928 14.6595 167.398 15.6226 166.333 17.6537C165.688 18.9786 164.663 20.079 163.392 20.8135C163.092 20.8562 161.952 17.0344 161.952 17.0344Z" fill="#F9A9FF"/>
<path fill-rule="evenodd" clip-rule="evenodd" d="M166.154 19.5323C166.154 19.5323 155.71 37.6191 150.893 41.8469C146.062 46.0602 131.537 52.696 130.667 54.035C129.794 55.389 130.741 72.1363 128.235 82.6542L98.6007 81.0592C98.6007 81.0592 99.4111 77.9596 100.386 73.969C101.451 69.6202 102.727 64.2335 103.387 60.6828C103.582 59.6745 103.717 58.8005 103.792 58.1548C103.792 58.1548 92.2528 67.692 86.3258 72.7355C82.4247 76.0459 77.7132 74.6467 74.9367 73.3071C74.1152 72.9202 73.3315 72.4568 72.5959 71.9229C72.5959 71.9229 92.0452 53.9867 95.1484 51.2636C98.2547 48.5248 101.061 41.2721 107.573 39.6018C113.209 38.0545 119.017 37.2354 124.859 37.1642C131.266 37.0136 141.574 36.1258 143.555 35.1626C145.055 34.4254 152.738 26.2529 157.869 20.9284C159.52 19.2129 160.916 17.7987 161.756 17.0162C161.739 16.9893 165.778 16.1315 166.154 19.5323Z" fill="#48A614"/>
<path fill-rule="evenodd" clip-rule="evenodd" d="M70.2557 64.7186C70.2707 64.7035 70.2856 64.7035 70.3006 64.6885C70.2707 64.7035 70.2383 64.7336 70.2109 64.7512C70.2258 64.7512 70.2407 64.7336 70.2557 64.7186Z" fill="#E84F4B"/>
<path fill-rule="evenodd" clip-rule="evenodd" d="M157.87 20.9014C157.63 23.76 157.54 26.8301 156.1 28.4402C153.354 31.5247 147.952 37.4384 140.328 40.4024C132.691 43.3665 127.649 46.6317 124.948 61.3479C122.248 76.0641 108.037 78.5468 102.561 76.1393C102.064 75.9539 101.613 75.6613 101.239 75.2819C100.866 74.9026 100.58 74.4457 100.4 73.9433C99.3799 70.9641 101.916 66.0437 103.401 60.6565C103.641 59.7837 103.851 58.8958 104.017 58.008C105.547 49.8675 103.236 48.4231 96.604 55.3897C90.9936 61.2877 78.5978 70.5739 74.9367 73.2807C74.1152 72.8939 73.3315 72.4305 72.5959 71.8966C72.5959 71.8966 92.0452 53.9603 95.1484 51.2372C98.2547 48.4984 101.061 41.2457 107.573 39.5755C113.209 38.0281 119.017 37.209 124.859 37.1378C131.266 36.9873 141.574 36.0994 143.555 35.1363C145.041 34.3984 152.724 26.2278 157.87 20.9014Z" fill="#60C02B"/>
<path fill-rule="evenodd" clip-rule="evenodd" d="M122.894 37.2275C122.894 37.2275 120.223 38.5213 118.122 39.2585C117.71 39.4126 117.289 39.5431 116.862 39.6494C114.805 40.1457 114.493 39.4537 113.966 36.6854C113.952 36.5923 113.927 36.5013 113.891 36.4143C113.411 35.0753 111.595 35.3156 110.124 34.9084C109.089 34.6223 108.219 34.0356 108.144 32.3202C107.949 28.0467 110.485 23.5027 110.485 23.5027C112.496 19.2292 118.873 19.5002 121.649 21.8174C124.425 24.1345 122.444 28.9194 121.439 31.6884C121.358 31.9079 121.298 32.1346 121.259 32.3654C120.808 34.8802 122.894 37.2275 122.894 37.2275Z" fill="#F6A1FE"/>
<path fill-rule="evenodd" clip-rule="evenodd" d="M122.894 37.2276C122.894 37.2276 120.223 38.522 118.122 39.2592C117.327 37.9949 116.262 35.7681 114.026 36.3855C113.981 36.4006 113.951 36.4006 113.906 36.4157C113.426 35.0767 111.611 35.317 110.14 34.9098C110.29 34.9248 114.881 35.4362 116.623 33.7659C118.394 32.0656 119.849 32.5468 120.63 32.1559C120.795 32.0806 121.02 32.1559 121.275 32.3517C120.808 34.8828 122.894 37.2276 122.894 37.2276Z" fill="#E38DEB"/>
<path fill-rule="evenodd" clip-rule="evenodd" d="M108.098 19.9383C108.098 19.9383 106.703 23.2939 109.569 25.5226C112.42 27.7343 116.982 26.9971 116.982 26.9971C116.982 26.9971 117.73 29.1185 117.927 29.9611C117.927 29.9611 118.363 28.2457 119.862 28.3662C121.363 28.4716 121.903 30.6984 120.61 32.203L121.358 32.5042C121.358 32.5042 122.231 29.0733 122.889 27.238C123.546 25.4027 123.819 21.9863 120.368 20.7075C116.917 19.4288 115.851 21.084 114.546 19.8498C112.465 17.8771 109.134 17.8934 108.098 19.9383Z" fill="#553DCC"/>
<path fill-rule="evenodd" clip-rule="evenodd" d="M61.4624 87.6047C61.4624 87.6047 50.4336 85.1068 49.9237 84.9412C49.4138 84.7755 72.1159 80.2917 72.1159 80.2917L61.4624 87.6047Z" fill="#CBD9FC"/>
<path fill-rule="evenodd" clip-rule="evenodd" d="M74.1425 71.9404C74.1724 72.2416 73.7373 72.9186 73.0921 73.7311C71.3068 76.0031 67.8856 79.434 67.8856 79.434L52.8504 84.1436C49.5227 84.0257 46.2196 83.5204 43.0073 82.6378C42.5572 82.5022 42.0922 82.3516 41.6571 82.1985C39.9166 82.6647 36.7804 83.3869 36.7804 83.3869C36.9709 82.3069 37.3093 81.2587 37.7859 80.2723C37.7859 80.2572 37.8009 80.2421 37.8009 80.2271C37.0569 79.6837 36.4207 79.0048 35.9252 78.2255C35.8503 78.1051 35.7899 77.9846 35.7151 77.8641C32.744 72.2798 38.251 65.6289 43.4275 58.7847C45.1035 56.5518 47.4176 54.8879 50.0596 54.0161C53.4208 52.8572 56.797 52.9777 58.9115 52.9927C59.4214 52.9927 59.8566 52.9927 60.2019 52.9777C63.0377 52.7819 69.2951 54.6329 71.3205 56.4989C72.882 59.7077 74.0671 70.7834 74.1425 71.9404Z" fill="#E7BA11"/>
<path fill-rule="evenodd" clip-rule="evenodd" d="M73.0921 73.7311C71.3068 76.0031 67.8857 79.4339 67.8857 79.4339L52.8505 84.1435C49.5227 84.0256 46.2196 83.5203 43.0073 82.6377C40.5918 81.7046 37.8159 80.2753 37.8159 80.2753H37.8009C37.8009 80.2603 37.8159 80.2452 37.8159 80.2302C37.0719 79.6868 36.4356 79.0079 35.9401 78.2286C35.8653 78.1081 35.8048 77.9877 35.73 77.8672L35.3398 76.3174C37.8607 73.699 42.8422 76.3174 44.3426 77.8521C45.8281 79.3869 46.9084 80.0338 49.8944 80.5307C51.6811 80.8208 53.4 81.4375 54.9662 82.3503C55.6391 81.1402 55.9565 79.7626 55.8813 78.3779C55.8813 78.3779 50.7073 76.4667 48.5442 75.6993C46.3811 74.932 45.4834 74.1935 46.2034 72.3112C46.9084 70.4288 50.9448 63.9146 50.9448 63.9146C52.31 62.9063 52.4752 65.6903 52.325 68.3532C52.1897 71.0318 53.2251 72.3406 54.9357 72.9725C56.6462 73.6194 57.2016 75.1541 59.8871 78.1175C62.5726 81.081 67.42 77.3502 67.42 77.3502C67.42 77.3502 68.0502 73.423 68.2005 71.7659C68.3507 70.1088 69.1761 63.4597 69.1761 63.4597C69.5627 63.8934 69.8496 64.4076 70.0164 64.9656C70.1965 65.748 70.5263 70.0517 71.6066 71.6919C72.0268 72.3469 72.5822 73.0691 73.0921 73.7311Z" fill="#E79111"/>
<path fill-rule="evenodd" clip-rule="evenodd" d="M59.0768 54.3806C57.1665 54.8777 55.2104 55.1753 53.2394 55.2684C52.6478 55.3275 52.0507 55.2435 51.4978 55.0237C50.9448 54.8038 50.452 54.4543 50.0602 54.0041C53.4215 52.8459 56.7977 52.9657 58.9122 52.9808C59.0169 53.6735 59.0768 54.3806 59.0768 54.3806Z" fill="#E79111"/>
<path fill-rule="evenodd" clip-rule="evenodd" d="M55.8657 78.4415C55.8819 79.5689 55.6138 80.682 55.0863 81.6767C54.5589 82.6715 53.7894 83.5153 52.8498 84.1293C52.8498 84.1293 57.1113 86.0706 59.2706 86.1754C61.43 86.2802 63.1717 83.7679 62.7516 82.1597C62.3314 80.5346 59.6602 80.64 59.6602 80.64C59.6602 80.64 61.056 80.3389 60.5155 79.5414C59.9925 78.7439 57.4416 77.4181 55.8657 78.4415Z" fill="#F6A1FE"/>
<path fill-rule="evenodd" clip-rule="evenodd" d="M72.7019 43.7581C72.7019 43.7581 72.3279 51.3119 70.5413 53.343C70.2903 53.6825 69.9574 53.9519 69.574 54.1257C69.1907 54.2995 68.7697 54.372 68.3507 54.3362C67.6307 54.2735 67.104 54.0049 66.955 54.6073C66.9058 54.8078 66.8406 55.004 66.7599 55.1939C66.4302 56.005 66.0494 56.7941 65.6197 57.5563C64.0678 57.3616 62.5543 56.9302 61.1314 56.2769C60.8103 56.122 60.4996 55.9461 60.2013 55.7505C57.9809 54.291 57.6505 52.9816 57.6505 52.9816C57.6505 52.9816 60.7717 50.8601 61.162 49.8669C60.9234 49.7892 60.7025 49.6647 60.5121 49.5006C60.3216 49.3365 60.1653 49.136 60.0523 48.9107C59.9393 48.6855 59.8717 48.4399 59.8535 48.1882C59.8353 47.9365 59.8669 47.6837 59.9464 47.4443C60.1565 46.658 60.4491 45.8964 60.8191 45.1723L69.3718 41.2L72.7019 43.7581Z" fill="#F6A1FE"/>
<path fill-rule="evenodd" clip-rule="evenodd" d="M68.3501 54.3356C67.6301 54.2728 67.1034 54.0043 66.9544 54.6067C66.9052 54.8072 66.84 55.0034 66.7593 55.1933C64.2533 54.0947 61.9592 54.697 61.132 56.277C60.811 56.122 60.5003 55.9461 60.2019 55.7505C57.9815 54.291 57.6511 52.9816 57.6511 52.9816C57.6511 52.9816 60.7723 50.8602 61.1626 49.8669C61.1626 49.8669 63.4285 50.3783 64.5836 51.898C65.409 52.9816 66.955 54.1555 68.3501 54.3356Z" fill="#E38DEB"/>
<path fill-rule="evenodd" clip-rule="evenodd" d="M59.8423 48.2267C58.5127 47.0047 57.6745 45.3344 57.4865 43.5321C57.2465 40.6132 60.6227 37.2125 65.2164 39.2736C65.2164 39.2736 67.0771 33.0142 73.2891 34.3833C79.516 35.7524 78.4956 41.5004 74.9847 43.1707C71.4739 44.8259 65.8765 42.857 64.8411 44.9163C63.8057 46.9755 63.2827 47.3388 62.2155 46.7522C61.9672 46.6127 61.6864 46.5424 61.4022 46.5487C61.1179 46.5549 60.8405 46.6375 60.5986 46.7878C60.3566 46.9381 60.159 47.1508 60.026 47.4037C59.893 47.6567 59.8296 47.9408 59.8423 48.2267Z" fill="#553DCC"/>
<path fill-rule="evenodd" clip-rule="evenodd" d="M71.4265 71.6398C71.4265 71.6398 62.6337 84.628 61.463 87.5895C61.463 87.5895 81.8699 86.0548 85.3209 85.453C85.3209 85.453 94.699 70.6453 95.3292 68.4649C95.3124 68.4492 81.5551 69.0064 71.4265 71.6398Z" fill="#BBCEFD"/>
<path fill-rule="evenodd" clip-rule="evenodd" d="M41.9719 91.3962C41.9719 91.3962 38.3707 91.6372 38.0104 93.202C37.65 94.7669 41.7319 95.8204 47.0287 95.986C52.3405 96.1517 54.5766 94.812 53.3012 93.5032C52.0257 92.1793 47.884 91.6522 47.884 91.6522L41.9719 91.3962Z" fill="#B2C8FF"/>
<path fill-rule="evenodd" clip-rule="evenodd" d="M40.4708 87.2884C40.4708 87.2884 41.4315 91.08 41.5811 91.6523C41.7291 92.3527 42.0912 92.9889 42.6165 93.4719C43.1414 93.8327 45.4217 94.2091 47.1478 94.0435C48.8739 93.8778 49.2636 93.3533 49.2636 93.3533C49.2636 93.3533 50.1039 87.769 50.0116 86.9433C49.9063 86.1157 47.6708 85.8446 46.3505 85.8446C45.0177 85.8139 40.8012 85.3772 40.4708 87.2884Z" fill="#C3D3FF"/>
<path fill-rule="evenodd" clip-rule="evenodd" d="M49.5484 87.5298C48.9481 87.8436 47.8229 88.1165 45.7969 88.0864C43.036 88.0412 41.0406 87.8906 40.5606 87.4545C41.0556 87.0034 42.3915 86.5818 44.1762 86.6119C45.9615 86.6269 45.1967 86.6872 45.4516 87.0781C45.7066 87.4846 48.5878 87.1232 49.1881 87.2738C49.2655 87.2798 49.3399 87.3067 49.4034 87.3518C49.4668 87.3969 49.5169 87.4584 49.5484 87.5298Z" fill="#A2A2A2"/>
<path fill-rule="evenodd" clip-rule="evenodd" d="M49.5484 87.5298C48.9481 87.8436 47.8229 88.1165 45.7969 88.0864C43.036 88.0412 41.0406 87.8906 40.5606 87.4545C41.0556 87.0034 42.3915 86.5818 44.1762 86.6119C45.9615 86.6269 45.9004 86.5654 46.1554 86.957C46.4104 87.3635 48.5866 87.1239 49.1881 87.2738C49.2655 87.2798 49.3399 87.3067 49.4034 87.3518C49.4668 87.3969 49.5169 87.4584 49.5484 87.5298Z" fill="#0A0A0A"/>
<path fill-rule="evenodd" clip-rule="evenodd" d="M41.9114 88.4348C42.0058 88.5375 42.0785 88.6586 42.1249 88.7905C42.1713 88.9224 42.1905 89.0625 42.1813 89.2021C42.0916 89.5485 40.396 89.2323 40.2159 90.1051C40.0357 90.9929 41.8366 90.9929 42.3764 90.5863C42.3764 90.5863 42.9013 91.1278 42.7817 91.6247C42.7817 91.6247 40.4559 92.5577 39.3606 91.3537C38.2497 90.1327 39.8855 88.3871 41.9114 88.4348Z" fill="#C3D3FF"/>
<g opacity="0.55">
<path opacity="0.55" fill-rule="evenodd" clip-rule="evenodd" d="M150.218 84.7753L141.35 83.3008L140.435 83.1502L135.424 82.3075C135.424 82.3075 140.84 68.3738 147.877 63.9352C147.954 63.8797 148.034 63.8294 148.117 63.7846C148.312 63.6642 148.508 63.5587 148.688 63.4533C151.181 62.0102 153.159 61.1945 154.435 61.1211C154.59 61.1109 154.746 61.1159 154.9 61.1362C156.61 61.3319 156.475 63.4684 153.699 68.0726C149.678 74.7537 148.927 75.7613 148.792 75.8969C149.272 75.5656 154.885 71.8185 157.765 72.466L158.08 72.5563C158.267 72.6212 158.426 72.7489 158.53 72.9177C159.641 74.8591 151.929 82.0352 150.218 84.7753Z" fill="#B7E796"/>
<path opacity="0.55" fill-rule="evenodd" clip-rule="evenodd" d="M158.53 72.9184C156.667 74.4349 154.644 75.7416 152.498 76.8155C149.213 78.6062 145.836 80.2163 142.385 81.6908C142.039 82.2323 141.68 82.7574 141.334 83.3008L140.419 83.1502C143.143 79.1485 145.605 74.9716 147.787 70.6464C147.967 70.27 148.147 69.8935 148.342 69.5327C148.237 68.7798 148.177 68.0268 148.117 67.2739C148.028 66.1602 147.952 65.0471 147.877 63.9484C147.954 63.8928 148.034 63.8425 148.117 63.7979C148.312 63.6774 148.508 63.572 148.688 63.4665C148.778 65.0465 148.868 66.6113 149.032 68.1762C149.981 66.2785 151.149 64.5007 152.513 62.8799C153.072 62.2386 153.702 61.6631 154.389 61.1644L154.419 61.1494C154.434 61.1494 154.434 61.1494 154.434 61.1343C154.525 61.082 154.63 61.06 154.734 61.0716C154.779 61.0867 154.839 61.1168 154.884 61.1343L154.899 61.1494L155.004 61.2548L155.067 61.4054V61.571L155.004 61.7216C154.779 61.9626 154.464 62.1609 154.194 62.3987C152.596 63.9286 151.267 65.7192 150.262 67.6949C149.888 68.3719 149.527 69.064 149.167 69.7561C149.151 69.8659 149.098 69.967 149.017 70.0422C148.747 70.5988 148.476 71.1409 148.207 71.6823C146.694 74.6855 145.021 77.6039 143.195 80.4246C146.97 78.8187 150.639 76.9691 154.178 74.8874C155.417 74.1744 156.6 73.3697 157.72 72.4798L158.035 72.5702C158.239 72.6165 158.417 72.7416 158.53 72.9184Z" fill="white"/>
</g>
<path fill-rule="evenodd" clip-rule="evenodd" d="M29.442 15.9357C29.442 15.9357 30.2075 30.2452 30.3571 31.8402L33.3431 31.8101C33.3431 31.8101 33.2683 16.4019 33.3282 15.9206C33.4036 15.4243 29.442 15.9357 29.442 15.9357Z" fill="#D0DFF9"/>
<path d="M63.9989 31.7053H22.5849V33.4509H63.9989V31.7053Z" fill="#BCCFF6"/>
<path fill-rule="evenodd" clip-rule="evenodd" d="M33.3282 17.5307C33.3282 17.5307 35.9688 16.9742 36.4494 17.1844C36.9145 17.3952 36.7044 31.9457 36.7044 31.9457L33.1779 31.6596C33.163 31.6747 33.2078 18.268 33.3282 17.5307Z" fill="#C4D4F9"/>
<path fill-rule="evenodd" clip-rule="evenodd" d="M36.6895 31.9606C36.6895 31.9606 36.2843 14.0997 36.4794 12.8235C36.4794 12.8235 39.2846 12.3422 39.9304 12.3573C39.9304 12.3573 40.5307 30.7898 40.6354 31.8282L36.6895 31.9606Z" fill="#D6E3FC"/>
<path fill-rule="evenodd" clip-rule="evenodd" d="M40.0656 16.718C40.0656 16.718 41.6409 15.4693 42.1514 15.0176C42.1514 15.0176 51.5894 29.7488 52.1298 30.7264C52.1298 30.7264 49.9991 31.9304 49.6238 32.0202L40.0656 16.718Z" fill="#D6E3FC"/>
<path fill-rule="evenodd" clip-rule="evenodd" d="M54.8016 25.7477C54.8016 25.7477 60.2337 24.4539 61.9592 24.7394C63.6847 25.0249 62.3794 29.5845 62.1543 30.5627C62.0561 30.9076 61.9859 31.2599 61.9442 31.6162L56.3925 31.6614C56.3756 31.6601 54.7704 26.1078 54.8016 25.7477Z" fill="#D6E3FC"/>
<path fill-rule="evenodd" clip-rule="evenodd" d="M58.1018 25.0695C58.1018 25.0695 54.5305 23.2185 53.9451 21.0067C53.3598 18.7799 55.2355 19.0504 56.4386 20.3166C56.8666 20.7361 57.2724 21.178 57.6542 21.6405C57.6542 21.6405 56.8588 16.7802 58.2246 15.6515C59.5904 14.5227 60.8951 17.0507 60.1901 20.9026C59.4851 24.7394 59.442 25.5219 59.442 25.5219L58.1018 25.0695Z" fill="#60C02B"/>
<path fill-rule="evenodd" clip-rule="evenodd" d="M33.5981 84.2025L29.5617 85.1205L28.7364 85.3162L26.5907 85.8126C25.5306 83.7582 24.3272 81.782 22.9895 79.8989C21.805 78.2888 21.5638 75.9566 22.0288 73.6696C22.0912 73.3985 22.1491 73.113 22.2239 72.842C22.5371 71.7176 23.007 70.6436 23.6197 69.652C25.6002 66.4771 22.5543 61.7073 20.9641 58.3065C20.798 57.9527 20.6624 57.5851 20.5589 57.2079C20.4536 56.7978 20.3784 56.3804 20.3339 55.9592C20.0789 53.4162 21.1443 50.7978 23.755 50.3316C24.0375 50.2828 24.3236 50.2577 24.6102 50.2563C24.8602 50.2569 25.11 50.272 25.3583 50.3015C30.1751 50.9033 31.3003 58.7281 29.0948 63.0764C28.6874 63.8172 28.4467 64.6391 28.3898 65.4839C28.3729 65.9046 28.4185 66.3254 28.5251 66.7325C29.0655 68.7341 30.9862 70.2086 32.203 72.4806C34.0638 75.8826 33.5981 84.2025 33.5981 84.2025Z" fill="#AFE290"/>
<path fill-rule="evenodd" clip-rule="evenodd" d="M29.5617 85.1217L28.7364 85.3175C28.3914 82.3685 28.0513 79.4243 27.7159 76.4849C27.4909 76.4222 27.3861 76.1385 27.206 75.9283C26.0054 74.4225 23.8747 73.8521 22.032 73.6564C22.0943 73.3853 22.1516 73.0998 22.2271 72.8288C23.6778 72.9722 25.083 73.4179 26.3532 74.1376C26.7907 74.3908 27.1942 74.6993 27.5538 75.0556C27.3587 73.3702 27.1798 71.7 26.9984 70.0297C26.7135 67.4114 26.2784 64.8087 25.8433 62.2055C25.8088 62.1418 25.7687 62.0813 25.7236 62.0247C24.742 60.6891 23.5689 59.5075 22.2427 58.5186C21.6872 58.0675 21.1324 57.6157 20.577 57.1946C20.4717 56.7845 20.3965 56.3672 20.352 55.946C21.9915 57.1158 23.5369 58.4138 24.9737 59.8281C25.1688 60.0238 25.3639 60.2189 25.5441 60.4298C24.9739 57.0441 24.3838 53.6736 23.7737 50.3185C24.0562 50.2697 24.3423 50.2445 24.629 50.2432C25.6494 55.8105 26.64 61.349 27.4497 66.9333C27.7293 66.4174 28.0559 65.9289 28.4253 65.4738C28.4084 65.8945 28.454 66.3153 28.5606 66.7224C28.2536 67.1873 27.9922 67.6812 27.7801 68.197C27.7429 68.2538 27.6973 68.3046 27.6448 68.3475C27.7801 69.3709 27.8848 70.3936 28.0051 71.417C28.4814 75.9578 29.0219 80.5319 29.5617 85.1217Z" fill="white"/>
<path fill-rule="evenodd" clip-rule="evenodd" d="M89.5375 3.62759C89.5375 3.62759 82.4702 5.28281 82.08 12.8818C81.6898 20.4808 89.4171 23.6858 95.2395 19.1262C101.061 14.5521 99.8462 5.98994 95.3598 4.22995C90.8883 2.46871 89.5375 3.62759 89.5375 3.62759Z" fill="#F6A1FE" fill-opacity="0.15"/>
<path fill-rule="evenodd" clip-rule="evenodd" d="M89.0873 6.81698C89.1937 6.82723 89.2929 6.87532 89.3671 6.95261C89.4414 7.0299 89.4859 7.13131 89.4925 7.23862L89.6278 13.6637L93.7689 13.5733C93.7689 13.5733 94.3542 13.7842 94.1591 14.1751C94.1229 14.2445 94.0694 14.3032 94.0038 14.3454C93.9382 14.3877 93.8629 14.412 93.7851 14.416L89.2239 14.5214C89.1672 14.525 89.1105 14.5147 89.0586 14.4913C88.9832 14.456 88.9185 14.4011 88.8711 14.3323C88.8236 14.2635 88.7952 14.1833 88.7887 14.0998L88.6385 7.23862C88.6349 7.18178 88.6452 7.12492 88.6684 7.07299C88.707 6.99473 88.7668 6.9291 88.8409 6.88377C88.9151 6.83844 89.0006 6.81528 89.0873 6.81698Z" fill="white"/>
</svg>
