<svg width="20" height="20" viewBox="0 0 20 20" fill="none" xmlns="http://www.w3.org/2000/svg">
<g clip-path="url(#clip0_4901_42943)">
<path d="M2.92969 18.3203C2.5651 18.3203 2.26562 18.2031 2.03125 17.9688C1.79688 17.7344 1.67969 17.4349 1.67969 17.0703V12.5C1.67969 12.2656 1.75781 12.0703 1.91406 11.9141C2.07031 11.7578 2.26562 11.6797 2.5 11.6797C2.73438 11.6797 2.92969 11.7578 3.08594 11.9141C3.24219 12.0703 3.32031 12.2656 3.32031 12.5V16.6797H16.6797V12.5C16.6797 12.2656 16.7578 12.0703 16.9141 11.9141C17.0703 11.7578 17.2656 11.6797 17.5 11.6797C17.7344 11.6797 17.9297 11.7578 18.0859 11.9141C18.2422 12.0703 18.3203 12.2656 18.3203 12.5V17.0703C18.3203 17.4349 18.2031 17.7344 17.9688 17.9688C17.7344 18.2031 17.4349 18.3203 17.0703 18.3203H2.92969ZM3.55469 8.71094C3.39844 8.52865 3.32031 8.32031 3.32031 8.08594C3.34635 7.85156 3.4375 7.65625 3.59375 7.5L9.29688 1.99219C9.50521 1.8099 9.73958 1.71875 10 1.71875C10.2604 1.71875 10.4948 1.8099 10.7031 1.99219L16.4062 7.5C16.5625 7.65625 16.6406 7.85156 16.6406 8.08594C16.6667 8.32031 16.6016 8.52865 16.4453 8.71094C16.2891 8.86719 16.0938 8.94531 15.8594 8.94531C15.625 8.94531 15.4297 8.86719 15.2734 8.71094L10 3.67188L4.72656 8.71094C4.57031 8.86719 4.375 8.94531 4.14062 8.94531C3.90625 8.94531 3.71094 8.86719 3.55469 8.71094ZM9.88281 14.1797C9.64844 14.1797 9.45312 14.1016 9.29688 13.9453C9.14062 13.763 9.0625 13.5547 9.0625 13.3203V4.02344C9.0625 3.78906 9.14062 3.59375 9.29688 3.4375C9.45312 3.28125 9.64844 3.20312 9.88281 3.20312C10.1172 3.20312 10.3125 3.28125 10.4688 3.4375C10.651 3.59375 10.7422 3.78906 10.7422 4.02344V13.3203C10.7422 13.5547 10.651 13.763 10.4688 13.9453C10.3125 14.1016 10.1172 14.1797 9.88281 14.1797Z" fill="#735CE6"/>
</g>
<defs>
<clipPath id="clip0_4901_42943">
<rect width="20" height="20" fill="white"/>
</clipPath>
</defs>
</svg>
