<svg width="32" height="36" viewBox="0 0 32 36" fill="none" xmlns="http://www.w3.org/2000/svg">
<path fill-rule="evenodd" clip-rule="evenodd" d="M31.1214 21.5534H31.1127C31.0011 25.4117 29.3681 29.0761 26.5591 31.772C23.75 34.4679 19.9851 35.9841 16.06 35.9999C7.7104 36.0327 0.762722 29.4015 0.880129 21.1913C0.988838 13.6725 6.21593 10.0268 11.6391 9.12345C14.1061 8.71223 16.9695 9.01155 19.4633 9.0087C19.4687 13.2524 16.5952 15.5832 13.768 16.4281C11.9286 16.9776 9.86321 18.7119 10.1527 21.9336C10.1584 23.3167 10.7225 24.641 11.721 25.6151C12.7195 26.5892 14.0706 27.1334 15.4771 27.1278C16.8836 27.1223 18.2303 26.5676 19.2209 25.5856C20.2115 24.6037 20.7648 23.275 20.7592 21.8919C20.7592 21.7918 20.7548 21.6927 20.749 21.5944H20.758L20.7917 8.9581C21.0414 6.27342 23.4324 0.0470372 31.0333 0L31.1192 21.072L31.1214 21.5534Z" fill="white"/>
</svg>
