<svg width="20" height="20" viewBox="0 0 20 20" fill="none" xmlns="http://www.w3.org/2000/svg">
<g clip-path="url(#clip0_4901_42938)">
<path d="M10 3.39844L3.32031 9.25781V16.6797H7.10938V12.8516C7.10938 12.6693 7.14844 12.487 7.22656 12.3047C7.30469 12.0964 7.42188 11.9271 7.57812 11.7969C7.70833 11.6667 7.86458 11.5625 8.04688 11.4844C8.25521 11.4062 8.45052 11.3672 8.63281 11.3672H11.3672C11.5495 11.3672 11.7318 11.4062 11.9141 11.4844C12.1224 11.5625 12.2917 11.6667 12.4219 11.7969C12.5781 11.9271 12.6953 12.0964 12.7734 12.3047C12.8516 12.487 12.8906 12.6693 12.8906 12.8516V16.6797H16.6797V9.25781L10 3.39844ZM8.98438 2.03125C9.11458 1.92708 9.27083 1.84896 9.45312 1.79688C9.63542 1.71875 9.81771 1.67969 10 1.67969C10.1823 1.67969 10.3646 1.71875 10.5469 1.79688C10.7292 1.84896 10.8854 1.92708 11.0156 2.03125L17.8516 8.08594C17.9297 8.13802 17.9948 8.21615 18.0469 8.32031C18.099 8.39844 18.151 8.47656 18.2031 8.55469C18.2552 8.65885 18.2812 8.76302 18.2812 8.86719C18.3073 8.97135 18.3203 9.07552 18.3203 9.17969V16.8359C18.3203 17.0443 18.2812 17.2396 18.2031 17.4219C18.125 17.6042 18.0208 17.7604 17.8906 17.8906C17.7344 18.0469 17.5651 18.1641 17.3828 18.2422C17.2005 18.2943 17.0182 18.3203 16.8359 18.3203H12.7344C12.526 18.3203 12.3307 18.2943 12.1484 18.2422C11.9661 18.1641 11.8099 18.0469 11.6797 17.8906C11.5234 17.7604 11.4062 17.6042 11.3281 17.4219C11.25 17.2396 11.2109 17.0443 11.2109 16.8359V13.0469H8.78906V16.8359C8.78906 17.0443 8.75 17.2396 8.67188 17.4219C8.59375 17.6042 8.47656 17.7604 8.32031 17.8906C8.1901 18.0469 8.03385 18.1641 7.85156 18.2422C7.66927 18.2943 7.47396 18.3203 7.26562 18.3203H3.16406C2.98177 18.3203 2.79948 18.2943 2.61719 18.2422C2.4349 18.1641 2.26562 18.0469 2.10938 17.8906C1.97917 17.7604 1.875 17.6042 1.79688 17.4219C1.71875 17.2396 1.67969 17.0443 1.67969 16.8359V9.17969C1.67969 9.07552 1.67969 8.97135 1.67969 8.86719C1.70573 8.76302 1.74479 8.65885 1.79688 8.55469C1.84896 8.47656 1.90104 8.39844 1.95312 8.32031C2.00521 8.21615 2.07031 8.13802 2.14844 8.08594H2.1875L8.98438 2.03125Z" fill="#6C757D"/>
</g>
<defs>
<clipPath id="clip0_4901_42938">
<rect width="20" height="20" fill="white"/>
</clipPath>
</defs>
</svg>
