<svg width="20" height="20" viewBox="0 0 20 20" fill="none" xmlns="http://www.w3.org/2000/svg">
<g clip-path="url(#clip0_4901_42947)">
<path d="M10.8203 4.17969C9.85677 4.17969 8.95833 4.40104 8.125 4.84375C7.29167 5.28646 6.61458 5.8724 6.09375 6.60156C5.96354 6.78385 5.78125 6.90104 5.54688 6.95312C5.3125 6.97917 5.10417 6.92708 4.92188 6.79688C4.73958 6.66667 4.6224 6.48438 4.57031 6.25C4.54427 6.01562 4.59635 5.80729 4.72656 5.625C5.40365 4.6875 6.27604 3.93229 7.34375 3.35938C8.41146 2.78646 9.57031 2.5 10.8203 2.5C12.9036 2.5 14.6745 3.22917 16.1328 4.6875C17.5911 6.14583 18.3203 7.91667 18.3203 10C18.3203 12.0833 17.5911 13.8542 16.1328 15.3125C14.6745 16.7708 12.9036 17.5 10.8203 17.5C9.7526 17.5 8.75 17.2917 7.8125 16.875C6.875 16.4583 6.06771 15.8854 5.39062 15.1562C5.23438 15 5.15625 14.8047 5.15625 14.5703C5.15625 14.3359 5.2474 14.1406 5.42969 13.9844C5.58594 13.8281 5.78125 13.75 6.01562 13.75C6.25 13.75 6.44531 13.8411 6.60156 14.0234C7.1224 14.5703 7.7474 15.013 8.47656 15.3516C9.20573 15.6641 9.98698 15.8203 10.8203 15.8203C12.4349 15.8203 13.8151 15.2604 14.9609 14.1406C16.1068 12.9948 16.6797 11.6146 16.6797 10C16.6797 8.38542 16.1068 7.01823 14.9609 5.89844C13.8151 4.7526 12.4349 4.17969 10.8203 4.17969ZM10.8203 4.72656C11.0547 4.72656 11.25 4.80469 11.4062 4.96094C11.5885 5.11719 11.6797 5.3125 11.6797 5.54688V5.9375C11.7057 5.9375 11.7448 5.95052 11.7969 5.97656C11.849 5.97656 11.901 5.98958 11.9531 6.01562C12.2396 6.09375 12.5651 6.23698 12.9297 6.44531C13.2943 6.65365 13.5807 6.97917 13.7891 7.42188C13.8932 7.60417 13.9062 7.8125 13.8281 8.04688C13.776 8.25521 13.6458 8.41146 13.4375 8.51562C13.2292 8.61979 13.0078 8.64583 12.7734 8.59375C12.5651 8.51562 12.4089 8.3724 12.3047 8.16406C12.2526 8.03385 12.1484 7.92969 11.9922 7.85156C11.862 7.7474 11.7057 7.66927 11.5234 7.61719C11.4193 7.59115 11.3281 7.57812 11.25 7.57812C11.1719 7.55208 11.0938 7.52604 11.0156 7.5C10.9896 7.5 10.9635 7.5 10.9375 7.5C10.9115 7.5 10.8854 7.5 10.8594 7.5C10.8594 7.5 10.8464 7.5 10.8203 7.5C10.8203 7.5 10.8073 7.5 10.7812 7.5C10.7552 7.5 10.7292 7.5 10.7031 7.5C10.6771 7.5 10.638 7.51302 10.5859 7.53906C10.5078 7.53906 10.4167 7.55208 10.3125 7.57812C10.2083 7.60417 10.1042 7.63021 10 7.65625C9.92188 7.68229 9.84375 7.72135 9.76562 7.77344C9.6875 7.82552 9.6224 7.8776 9.57031 7.92969C9.54427 7.95573 9.51823 8.00781 9.49219 8.08594C9.46615 8.13802 9.45312 8.21615 9.45312 8.32031C9.45312 8.47656 9.46615 8.59375 9.49219 8.67188C9.51823 8.72396 9.54427 8.77604 9.57031 8.82812C9.59635 8.85417 9.6224 8.89323 9.64844 8.94531C9.70052 8.97135 9.76562 8.9974 9.84375 9.02344C10 9.10156 10.1693 9.15365 10.3516 9.17969C10.5339 9.17969 10.6901 9.17969 10.8203 9.17969C10.8464 9.17969 10.8594 9.17969 10.8594 9.17969C10.9896 9.17969 11.2109 9.19271 11.5234 9.21875C11.8359 9.21875 12.1615 9.29688 12.5 9.45312C12.6562 9.53125 12.8255 9.63542 13.0078 9.76562C13.1901 9.86979 13.3464 10.026 13.4766 10.2344C13.6068 10.4167 13.7109 10.638 13.7891 10.8984C13.8672 11.1328 13.9062 11.3932 13.9062 11.6797C13.9062 11.9922 13.8542 12.2786 13.75 12.5391C13.6458 12.7734 13.5026 12.9948 13.3203 13.2031C13.1641 13.3854 12.9818 13.5286 12.7734 13.6328C12.5911 13.737 12.4089 13.8281 12.2266 13.9062C12.1224 13.9323 12.0182 13.9583 11.9141 13.9844C11.8359 14.0104 11.7578 14.0365 11.6797 14.0625V14.4531C11.6797 14.6875 11.5885 14.8828 11.4062 15.0391C11.25 15.1953 11.0547 15.2734 10.8203 15.2734C10.5859 15.2734 10.3906 15.1953 10.2344 15.0391C10.0781 14.8828 10 14.6875 10 14.4531V14.0625C9.94792 14.0625 9.89583 14.0625 9.84375 14.0625C9.79167 14.0365 9.73958 14.0104 9.6875 13.9844C9.40104 13.9062 9.07552 13.763 8.71094 13.5547C8.3724 13.3464 8.08594 13.0208 7.85156 12.5781C7.7474 12.3958 7.73438 12.2005 7.8125 11.9922C7.89062 11.7578 8.03385 11.5885 8.24219 11.4844C8.45052 11.3802 8.65885 11.3672 8.86719 11.4453C9.10156 11.4974 9.27083 11.6276 9.375 11.8359C9.42708 11.9661 9.51823 12.0833 9.64844 12.1875C9.77865 12.2656 9.94792 12.3307 10.1562 12.3828C10.2604 12.4089 10.3516 12.4349 10.4297 12.4609C10.5078 12.4609 10.5859 12.474 10.6641 12.5C10.6901 12.5 10.7161 12.5 10.7422 12.5C10.7682 12.5 10.7812 12.5 10.7812 12.5C10.8073 12.5 10.8203 12.5 10.8203 12.5C10.8464 12.5 10.8594 12.5 10.8594 12.5C10.8594 12.5 10.8724 12.5 10.8984 12.5C10.8984 12.5 10.9115 12.5 10.9375 12.5C10.9896 12.5 11.0417 12.5 11.0938 12.5C11.1719 12.474 11.25 12.4479 11.3281 12.4219C11.4323 12.3958 11.5365 12.3698 11.6406 12.3438C11.7448 12.3177 11.8359 12.2786 11.9141 12.2266C11.9922 12.1745 12.0443 12.1224 12.0703 12.0703C12.1224 12.0443 12.1615 12.0052 12.1875 11.9531C12.2135 11.875 12.2266 11.7839 12.2266 11.6797C12.2266 11.5234 12.2135 11.4193 12.1875 11.3672C12.1615 11.2891 12.1354 11.224 12.1094 11.1719C12.0833 11.1458 12.0443 11.1198 11.9922 11.0938C11.9401 11.0417 11.888 11.0026 11.8359 10.9766C11.6797 10.8984 11.5104 10.8594 11.3281 10.8594C11.1458 10.8333 10.9766 10.8203 10.8203 10.8203C10.6641 10.8203 10.4297 10.8203 10.1172 10.8203C9.83073 10.7943 9.51823 10.7031 9.17969 10.5469C8.9974 10.4688 8.8151 10.3776 8.63281 10.2734C8.47656 10.1432 8.33333 9.97396 8.20312 9.76562C8.07292 9.58333 7.96875 9.375 7.89062 9.14062C7.8125 8.88021 7.77344 8.60677 7.77344 8.32031C7.77344 8.00781 7.82552 7.73438 7.92969 7.5C8.03385 7.23958 8.16406 7.00521 8.32031 6.79688C8.5026 6.61458 8.6849 6.47135 8.86719 6.36719C9.07552 6.26302 9.25781 6.17188 9.41406 6.09375C9.51823 6.06771 9.6224 6.04167 9.72656 6.01562C9.83073 5.98958 9.92188 5.96354 10 5.9375V5.54688C10 5.3125 10.0781 5.11719 10.2344 4.96094C10.4167 4.80469 10.612 4.72656 10.8203 4.72656ZM4.49219 13.3203C4.25781 13.3203 4.04948 13.2422 3.86719 13.0859C3.71094 12.9297 3.63281 12.7344 3.63281 12.5V11.3672H2.5C2.26562 11.3672 2.07031 11.2891 1.91406 11.1328C1.75781 10.9505 1.67969 10.7422 1.67969 10.5078C1.67969 10.2734 1.75781 10.0781 1.91406 9.92188C2.07031 9.76562 2.26562 9.6875 2.5 9.6875H3.63281V8.51562C3.63281 8.30729 3.71094 8.125 3.86719 7.96875C4.04948 7.78646 4.25781 7.69531 4.49219 7.69531C4.72656 7.69531 4.92188 7.78646 5.07812 7.96875C5.23438 8.125 5.3125 8.30729 5.3125 8.51562V9.6875H6.48438C6.69271 9.6875 6.875 9.76562 7.03125 9.92188C7.21354 10.0781 7.30469 10.2734 7.30469 10.5078C7.30469 10.7422 7.21354 10.9505 7.03125 11.1328C6.875 11.2891 6.69271 11.3672 6.48438 11.3672H5.3125V12.5C5.3125 12.7344 5.23438 12.9297 5.07812 13.0859C4.92188 13.2422 4.72656 13.3203 4.49219 13.3203Z" fill="#6C757D"/>
</g>
<defs>
<clipPath id="clip0_4901_42947">
<rect width="20" height="20" fill="white"/>
</clipPath>
</defs>
</svg>
